HIERARCHY
ROOT Hips
{
 OFFSET 0.000000 0.000000 0.000000
 CHANNELS 6 Xposition Yposition Zposition Yrotation Xrotation Zrotation
 JOINT Chest
 {
  OFFSET 0.000000 10.738899 -1.193211
  CHANNELS 3 Yrotation Xrotation Zrotation
  JOINT Chest2
  {
   OFFSET 0.000000 11.999099 0.000000
   CHANNELS 3 Yrotation Xrotation Zrotation
   JOINT Chest3
   {
    OFFSET 0.000000 10.954005 0.008395
    CHANNELS 3 Yrotation Xrotation Zrotation
    JOINT Chest4
    {
     OFFSET 0.000000 10.941780 0.008404
     CHANNELS 3 Yrotation Xrotation Zrotation
     JOINT Neck
     {
      OFFSET 0.000000 15.318515 0.000000
      CHANNELS 3 Yrotation Xrotation Zrotation
      JOINT Head
      {
       OFFSET 0.000000 10.184672 -0.018055
       CHANNELS 3 Yrotation Xrotation Zrotation
       End Site
       {
        OFFSET 0.000000 18.955491 -0.002428
       }
      }
     }
     JOINT RightCollar
     {
      OFFSET -3.314535 8.581803 0.000000
      CHANNELS 3 Yrotation Xrotation Zrotation
      JOINT RightShoulder
      {
       OFFSET -15.326000 0.000000 0.000000
       CHANNELS 3 Yrotation Xrotation Zrotation
       JOINT RightElbow
       {
        OFFSET -32.718526 0.000000 0.000000
        CHANNELS 3 Yrotation Xrotation Zrotation
        JOINT RightWrist
        {
         OFFSET -26.761202 0.000000 0.000000
         CHANNELS 3 Yrotation Xrotation Zrotation
         JOINT Prop1
         {
          OFFSET -9.847056 -1.094117 2.188235
          CHANNELS 3 Yrotation Xrotation Zrotation
          End Site
          {
           OFFSET 0.000000 0.000000 149.099226
          }
         }
         End Site
         {
          OFFSET -20.022348 0.000000 0.000000
         }
        }
       }
      }
     }
     JOINT LeftCollar
     {
      OFFSET 3.314535 8.581803 0.000000
      CHANNELS 3 Yrotation Xrotation Zrotation
      JOINT LeftShoulder
      {
       OFFSET 15.326000 0.000000 0.000000
       CHANNELS 3 Yrotation Xrotation Zrotation
       JOINT LeftElbow
       {
        OFFSET 32.718526 0.000000 0.000000
        CHANNELS 3 Yrotation Xrotation Zrotation
        JOINT LeftWrist
        {
         OFFSET 26.761202 0.000000 0.000000
         CHANNELS 3 Yrotation Xrotation Zrotation
         End Site
         {
          OFFSET 20.022348 0.000000 0.000000
         }
        }
       }
      }
     }
    }
   }
  }
 }
 JOINT RightHip
 {
  OFFSET -8.795616 -0.019341 0.002149
  CHANNELS 3 Yrotation Xrotation Zrotation
  JOINT RightKnee
  {
   OFFSET 0.000000 -45.772294 0.001985
   CHANNELS 3 Yrotation Xrotation Zrotation
   JOINT RightAnkle
   {
    OFFSET 0.000000 -44.761703 0.003346
    CHANNELS 3 Yrotation Xrotation Zrotation
    JOINT RightToe
    {
     OFFSET 0.000000 -7.168792 16.165742
     CHANNELS 3 Yrotation Xrotation Zrotation
     End Site
     {
      OFFSET 0.000000 -1.642381 7.007491
     }
    }
   }
  }
 }
 JOINT LeftHip
 {
  OFFSET 8.795616 -0.021756 0.002417
  CHANNELS 3 Yrotation Xrotation Zrotation
  JOINT LeftKnee
  {
   OFFSET 0.000000 -45.772294 0.001985
   CHANNELS 3 Yrotation Xrotation Zrotation
   JOINT LeftAnkle
   {
    OFFSET 0.000000 -44.761703 0.003346
    CHANNELS 3 Yrotation Xrotation Zrotation
    JOINT LeftToe
    {
     OFFSET 0.000000 -7.168792 16.165742
     CHANNELS 3 Yrotation Xrotation Zrotation
     End Site
     {
      OFFSET 0.000000 -1.642381 7.007491
     }
    }
   }
  }
 }
}
MOTION
Frames: 7
Frame Time: 0.016667
4.912705 90.707769 -22.769656 -16.769713 26.277121 -4.424337 -3.427948 14.091996 -0.440006 -1.489135 0.439904 -0.088632 -1.498033 6.258389 -0.240681 -1.137010 10.531094 -0.167295 -11.629842 12.100884 11.347785 -26.417556 -9.670303 25.990939 1.508291 7.040267 9.430984 -24.781559 -35.302372 68.523998 64.659086 -29.427920 36.166885 -1.897340 2.805744 -10.105296 -168.261078 -89.434406 129.016634 -3.605671 6.216843 -3.420892 -2.954249 -35.524356 -44.916082 -63.284253 -30.473574 -30.871209 2.672087 -7.354364 23.913873 -10.021376 -45.576132 -12.808892 -5.911672 15.624798 -0.339497 -5.931009 2.309035 18.246362 0.000000 0.000000 0.000000 -0.789279 -57.837291 24.557236 8.982307 37.671186 -4.681410 21.667695 -0.452623 -9.035497 0.000307 0.012130 -0.040828
4.773557 90.705207 -22.593088 -17.516624 25.762084 -4.254038 -3.863906 13.902206 -0.425010 -1.684203 0.355759 -0.070466 -1.693991 6.173663 -0.242408 -1.283818 10.467620 -0.166812 -11.551905 12.167282 11.192204 -26.200257 -9.627960 25.656311 0.911419 6.562437 9.445301 -25.970503 -34.586212 67.239020 64.274948 -30.913311 37.264611 -2.229499 2.799619 -10.270665 -92.024575 -89.085926 52.400351 -3.661651 6.115425 -3.569094 -3.079590 -34.737302 -45.505328 -64.911883 -30.462545 -31.355035 3.188924 -7.293652 24.439571 -9.817002 -45.665201 -13.048101 -5.934487 16.375352 -0.241250 -6.307825 2.048963 17.821934 0.000000 0.000000 0.000000 -0.082937 -57.065413 24.225920 8.958574 37.796434 -4.732442 21.924085 -0.786281 -9.109336 0.000000 -0.000000 0.000000
4.598574 90.710413 -22.402912 -18.153708 25.267505 -4.097888 -4.300771 13.712691 -0.385695 -1.881541 0.271534 -0.041947 -1.892200 6.088832 -0.234002 -1.431661 10.404081 -0.158663 -11.460761 12.231983 11.040672 -25.960406 -9.590745 25.325342 0.361021 6.082729 9.446006 -27.395651 -34.205470 65.923128 63.200729 -32.592119 38.891503 -2.566663 2.828769 -10.320362 -68.062107 -88.387067 28.169033 -3.724710 6.026939 -3.667014 -3.707521 -34.028315 -46.152871 -66.597781 -30.572714 -31.251155 3.763814 -7.232874 24.614826 -9.879936 -45.703589 -13.130013 -5.672833 17.019144 -0.051776 -6.249536 1.849517 17.766935 0.000000 0.000000 -0.000000 0.575679 -56.368285 23.911073 9.036046 37.963921 -4.692156 21.797465 -1.213670 -9.142925 0.000000 -0.000000 -0.000000
4.388508 90.718463 -22.196489 -18.708247 24.781491 -3.944147 -4.739623 13.523388 -0.331271 -2.080907 0.187199 -0.007072 -2.092396 6.003812 -0.219429 -1.580588 10.340367 -0.145864 -11.362829 12.295118 10.887070 -25.707835 -9.558153 24.988766 -0.157007 5.600501 9.435294 -28.893530 -34.107037 64.595974 61.603852 -34.290972 40.821892 -2.904879 2.858947 -10.318891 -56.864569 -87.627410 16.754932 -3.796242 5.959028 -3.729624 -4.650320 -33.447455 -46.845807 -68.315800 -30.674706 -30.787210 4.359255 -7.176730 24.562578 -10.089192 -45.712171 -13.125277 -5.224203 17.625526 0.181169 -5.923709 1.716759 17.951666 -0.000000 0.000000 -0.000000 1.198531 -55.704630 23.611652 9.160820 38.144420 -4.610476 21.442084 -1.671958 -9.107443 0.000000 0.000000 0.000000
4.147286 90.729365 -21.974410 -19.257217 24.283205 -3.751306 -5.170066 13.342220 -0.295725 -2.275086 0.106523 0.019016 -2.287299 5.922345 -0.213116 -1.726095 10.279295 -0.139439 -11.270968 12.342396 10.715666 -25.465479 -9.556907 24.626360 -0.633460 5.219103 9.391629 -30.074563 -34.246457 63.291442 59.950259 -35.857541 42.487456 -3.250649 2.822700 -10.340478 -51.917268 -86.853405 11.533776 -3.870940 5.978348 -3.776435 -5.603643 -33.147138 -47.583874 -69.948886 -30.603702 -30.299170 4.930404 -7.071316 24.405408 -10.096464 -45.674298 -13.225160 -4.845673 18.204069 0.325289 -5.550919 1.718975 18.165009 0.000000 0.000000 0.000000 1.928887 -55.000814 23.210162 9.226165 38.256194 -4.533347 21.117284 -1.999769 -9.029821 -0.000000 -0.000000 0.000000
3.869682 90.741693 -21.729962 -19.835218 23.749212 -3.490005 -5.591632 13.174592 -0.300526 -2.462329 0.032290 0.026967 -2.475195 5.847305 -0.224233 -1.867538 10.223118 -0.146350 -11.195298 12.360589 10.513237 -25.251322 -9.611725 24.220944 -1.057879 5.039676 9.300934 -30.746546 -34.602992 62.064282 58.519583 -37.338518 43.566691 -3.624290 2.666934 -10.450804 -49.688564 -86.059688 8.898653 -3.997423 6.161532 -3.842331 -6.393013 -33.199289 -48.384314 -71.573335 -30.281564 -29.818645 5.501962 -6.849140 24.091875 -9.734965 -45.565217 -13.515722 -4.656516 18.752450 0.284577 -5.150155 1.920125 18.416422 0.000000 -0.000000 0.000000 2.882074 -54.205710 22.608665 9.163032 38.250161 -4.483142 20.896910 -2.138100 -8.920271 0.000000 -0.000000 0.000000
3.560922 90.756871 -21.469859 -20.409060 23.204310 -3.189440 -6.003898 13.013043 -0.324694 -2.644084 -0.038940 0.025940 -2.657573 5.775278 -0.243755 -2.005458 10.169278 -0.159720 -11.123487 12.361533 10.293988 -25.043237 -9.700386 23.790654 -1.448604 4.960903 9.167326 -31.107524 -35.123530 60.895727 57.149428 -38.745626 44.314095 -4.011696 2.446989 -10.587630 -48.562955 -85.296007 7.302631 -4.135373 6.430844 -3.900218 -7.190491 -33.529526 -49.189463 -73.074103 -29.800610 -29.358578 6.048959 -6.577200 23.667777 -9.176126 -45.405060 -13.905116 -4.542478 19.271819 0.154568 -4.700260 2.254302 18.696301 0.000000 -0.000000 0.000000 3.920175 -53.365280 21.927666 9.041581 38.175298 -4.435450 20.705252 -2.144461 -8.773433 0.000000 -0.000000 0.000000
